<svg xmlns="http://www.w3.org/2000/svg" class="icon icon-linkedin" width="" height="24" viewBox="0 0 24 24" fill="var(--color-primary)">
<style type="text/css">
	.st0{fill:#81B29A;}
</style>
<path class="st0" d="M5.4,17.5l-0.3-1c0,0-1.2,1.2-2.6,1.2C1,17.6,0,16.7,0,15.1c0-1.9,1.4-2.7,3.9-2.7H5v-0.9
	c0-0.8-0.4-1.2-1.2-1.2c-0.8,0-1.4,0.2-1.4,0.2l-0.2,1H0.7L0.6,9.2c0,0,1.9-0.6,3.5-0.6c2.4,0,3.4,0.9,3.4,3.2v4l1.2,0.3v1.3
	L5.4,17.5z M5,13.8H4.1c-1.3,0-1.8,0.3-1.8,1c0,0.6,0.3,1,0.9,1c0.9,0,1.7-0.9,1.7-0.9V13.8z M11.7,6.1c0-0.9,0.6-1.4,1.4-1.4
	c0.9,0,1.4,0.5,1.4,1.4c0,0.9-0.6,1.5-1.4,1.5C12.2,7.6,11.7,7.1,11.7,6.1z M14.4,8.8v8.5c0,2.8-0.8,4.2-3.5,4.2
	c-0.5,0-1.2-0.1-1.2-0.1l0.2-1.6h0.8c1,0,1.3-0.6,1.3-1.6v-7.6l-1.3-0.4V8.8L14.4,8.8z M18.8,14.6l0.1,1c0,0,0.6,0.2,1.4,0.2
	c0.9,0,1.3-0.3,1.3-0.8c0-1.3-4.3-0.8-4.3-3.7c0-2,1.6-2.8,3.3-2.8c1.4,0,3,0.5,3,0.5l-0.1,2.4h-1.4l-0.2-1c0,0-0.5-0.2-1.1-0.2
	c-0.7,0-1.1,0.3-1.1,0.8c0,1.3,4.3,0.7,4.3,3.5c0,1.9-1.5,2.9-3.7,2.9c-1.5,0-3-0.4-3-0.4v-2.6C17.3,14.6,18.8,14.6,18.8,14.6z"/>
</svg>
