<?xml version="1.0" standalone="no"?>
<!DOCTYPE svg PUBLIC "-//W3C//DTD SVG 20010904//EN"
 "http://www.w3.org/TR/2001/REC-SVG-20010904/DTD/svg10.dtd">
<svg version="1.0" xmlns="http://www.w3.org/2000/svg"
 width="700.000000pt" height="700.000000pt" viewBox="0 0 700.000000 700.000000"
 preserveAspectRatio="xMidYMid meet">
<metadata>
Created by potrace 1.14, written by Peter Selinger 2001-2017
</metadata>
<g transform="translate(0.000000,700.000000) scale(0.100000,-0.100000)"
fill="#000000" stroke="none">
<path d="M1229 6996 c-2 -2 -27 -7 -55 -10 -217 -23 -471 -132 -664 -285 -232
-184 -425 -496 -479 -771 -6 -30 -14 -68 -18 -85 -11 -44 -14 -4568 -2 -4643
22 -149 31 -190 74 -307 158 -436 537 -767 990 -864 28 -6 64 -14 80 -18 17
-4 1056 -8 2310 -9 2473 -2 2364 -4 2555 52 93 27 91 26 202 77 211 97 411
269 547 470 80 119 174 334 196 452 3 17 12 64 20 105 12 63 14 426 12 2360
-2 1257 -6 2303 -10 2325 -55 300 -184 552 -387 755 -192 192 -450 330 -701
375 -19 4 -47 9 -64 13 -32 7 -4599 15 -4606 8z m771 -3167 c250 -500 528
-1054 617 -1232 89 -177 162 -325 163 -329 0 -4 -558 -7 -1240 -8 -682 0
-1240 2 -1240 5 0 5 620 1251 639 1285 5 8 141 279 302 603 162 323 296 587
299 586 3 0 210 -410 460 -910z m1875 38 l0 -757 95 0 c52 -1 242 -1 423 0
253 0 327 -3 328 -13 0 -6 2 -199 2 -427 l2 -416 -847 0 -848 0 0 1188 0 1188
423 -2 422 -3 0 -758z m2806 711 c-15 -29 -126 -246 -246 -483 -119 -236 -260
-512 -311 -612 l-94 -181 0 -524 0 -524 -420 0 c-231 0 -421 3 -421 6 -1 3 -2
208 -3 455 l-2 450 -63 125 c-34 69 -66 132 -71 141 -28 52 -600 1192 -600
1195 0 2 508 4 1129 4 l1129 0 -27 -52z"/>
</g>
</svg>
