<svg xmlns="http://www.w3.org/2000/svg" class="icon icon-linkedin" width="24" height="24" viewBox="0 0 24 24" fill="var(--color-primary)">
<path d="M19.1,0H4.9C2.2,0,0,2.2,0,4.9v14.1C0,21.8,2.2,24,4.9,24h14.1c2.7,0,4.9-2.2,4.9-4.9V4.9C24,2.2,21.8,0,19.1,0z M7.2,20.7
		H3.6V9.1h3.6V20.7z M5.4,7.5c-1.2,0-2.1-0.9-2.1-2.1c0-1.2,0.9-2.1,2.1-2.1c1.2,0,2.1,0.9,2.1,2.1C7.5,6.6,6.5,7.5,5.4,7.5z
		 M20.7,20.7h-3.6V15c0-1.3,0-3.1-1.9-3.1c-1.9,0-2.2,1.5-2.2,3v5.7H9.5V9.1h3.5v1.6h0c0.5-0.9,1.7-1.9,3.4-1.9
		c3.6,0,4.3,2.4,4.3,5.5V20.7z"/>
</svg>
