<svg xmlns="http://www.w3.org/2000/svg" class="icon icon-medium" width="24" height="24" viewBox="0 0 24 24" fill="var(--color-primary)">
<path d="M20.8,0H3.2C1.4,0,0,1.4,0,3.2v17.5C0,22.6,1.4,24,3.2,24h17.5c1.8,0,3.2-1.4,3.2-3.2V3.2C24,1.4,22.6,0,20.8,0z M8.6,16.5
		c-2.5,0-4.5-2-4.5-4.5c0-2.5,2-4.5,4.5-4.5c2.5,0,4.5,2,4.5,4.5C13.1,14.5,11.1,16.5,8.6,16.5z M15.7,16.2c-1.1,0-2-1.9-2-4.2
		c0-2.3,0.9-4.2,2-4.2c1.1,0,2,1.9,2,4.2C17.7,14.3,16.8,16.2,15.7,16.2z M19.1,15.8c-0.4,0-0.8-1.7-0.8-3.8c0-2.1,0.4-3.8,0.8-3.8
		c0.4,0,0.8,1.7,0.8,3.8C19.9,14.1,19.6,15.8,19.1,15.8z"/>
</svg>
