<svg xmlns="http://www.w3.org/2000/svg" class="icon icon-reddit" width="24" height="24" viewBox="0 0 24 24" fill="var(--color-primary)">
<path class="st0" d="M23.5,19l-3.7-3.7c-0.7-0.7-2-0.7-2.7,0.1l-1.9,1.9c-0.1-0.1-0.2-0.1-0.4-0.2c-1.2-0.7-2.8-1.5-4.5-3.2
			C8.6,12,7.7,10.4,7,9.3C7,9.1,6.9,9,6.8,8.9l1.3-1.3L8.7,7c0.8-0.8,0.8-2,0-2.7L5.1,0.6c-0.7-0.7-2-0.7-2.7,0.1l-1,1.1l0,0
			C1,2.2,0.7,2.7,0.5,3.2c-0.2,0.5-0.3,1-0.4,1.5c-0.5,4.1,1.4,7.8,6.4,12.8c7,7,12.6,6.4,12.8,6.4c0.5-0.1,1-0.2,1.5-0.4
			c0.6-0.2,1.1-0.5,1.5-0.9l0,0l1.1-1C24.2,21,24.2,19.7,23.5,19z"/>
</svg>
