<?xml version="1.0" encoding="utf-8"?>
<!-- Generator: Adobe Illustrator 27.7.0, SVG Export Plug-In . SVG Version: 6.00 Build 0)  -->
<svg version="1.1" id="Layer_1" xmlns="http://www.w3.org/2000/svg" xmlns:xlink="http://www.w3.org/1999/xlink" x="0px" y="0px"
	 viewBox="0 0 24 24" style="enable-background:new 0 0 24 24;" xml:space="preserve">
<g id="g3015" transform="matrix(1,0,0,-1,159.45763,1293.0169)">
	<path id="path3017" d="M-135.5,1274.1c0-0.3-0.1-0.7-0.2-1.2s-0.2-0.9-0.4-1.2c-0.2-0.6-0.9-1.2-2.1-1.8c-1.1-0.6-2.1-0.9-3.2-0.9
		c-0.3,0-0.6,0-0.9,0.1c-0.3,0-0.6,0.1-1,0.2s-0.6,0.2-0.8,0.2c-0.2,0.1-0.5,0.2-0.9,0.3c-0.5,0.2-0.7,0.3-0.8,0.3
		c-1.1,0.4-2.1,0.9-3,1.4c-1.5,0.9-3,2.1-4.5,3.7s-2.8,3.1-3.7,4.5c-0.5,0.9-1,1.9-1.4,3c0,0.1-0.1,0.4-0.3,0.8
		c-0.2,0.5-0.3,0.8-0.3,0.9c-0.1,0.2-0.1,0.4-0.2,0.8c-0.1,0.4-0.2,0.7-0.2,1c0,0.3-0.1,0.6-0.1,0.9c0,1,0.3,2.1,0.9,3.2
		c0.6,1.1,1.2,1.8,1.8,2.1c0.3,0.1,0.7,0.2,1.2,0.4s0.9,0.2,1.2,0.2c0.2,0,0.3,0,0.4-0.1c0.2-0.1,0.5-0.5,0.9-1.3
		c0.1-0.2,0.3-0.5,0.5-0.9c0.2-0.4,0.4-0.8,0.6-1.1c0.2-0.3,0.4-0.6,0.5-0.9c0,0,0.1-0.2,0.3-0.4c0.2-0.2,0.3-0.4,0.4-0.6
		s0.1-0.3,0.1-0.5c0-0.2-0.2-0.5-0.5-0.9c-0.3-0.3-0.7-0.7-1.1-0.9c-0.4-0.3-0.7-0.6-1.1-0.9c-0.3-0.3-0.5-0.6-0.5-0.8
		c0-0.1,0-0.2,0.1-0.4c0.1-0.2,0.1-0.3,0.1-0.3c0-0.1,0.1-0.2,0.2-0.4c0.1-0.2,0.2-0.3,0.2-0.3c0.9-1.6,1.9-2.9,3-4
		c1.1-1.1,2.4-2.1,4-3c0,0,0.1-0.1,0.3-0.2c0.2-0.1,0.3-0.2,0.4-0.2s0.2-0.1,0.3-0.1c0.2-0.1,0.3-0.1,0.4-0.1c0.2,0,0.5,0.2,0.8,0.5
		c0.3,0.3,0.6,0.7,0.9,1.1c0.3,0.4,0.6,0.7,0.9,1.1c0.3,0.3,0.6,0.5,0.9,0.5c0.2,0,0.3,0,0.5-0.1c0.2-0.1,0.4-0.2,0.6-0.4
		s0.4-0.3,0.4-0.3c0.3-0.2,0.6-0.3,0.9-0.5c0.3-0.2,0.7-0.4,1.1-0.6c0.4-0.2,0.7-0.4,0.9-0.5c0.8-0.4,1.2-0.7,1.3-0.9
		C-135.5,1274.3-135.5,1274.2-135.5,1274.1z"/>
</g>
</svg>
