<svg xmlns="http://www.w3.org/2000/svg" class="icon icon-linkedin" width="24" height="24" viewBox="0 0 24 24" fill="var(--color-primary)">
<path d="M20.7,17.4v2.4h-8.9v-2.4l2.1-0.8l-0.7-2H7l-0.7,2l2.2,0.8v2.4H0v-2.4l2-0.8L8.2,0.1L12.7,0l6,16.6L20.7,17.4z M10.9,10.3
	L8.8,3.7l-2.2,6.6C6.6,10.3,10.9,10.3,10.9,10.3z M25.9,8.7v13.4c0,4.9-1.5,7.4-6.4,7.4c-0.9,0-2.1-0.6-2.1-0.6l0.3-2.5h1.3
	c1.7,0,2.5-0.9,2.5-2.7V8.7l-2.1-0.8V5.5L28,5.3v2.5L25.9,8.7z M8.8,34.3l0.4,2.4c0,0,1.1,0.6,2.7,0.6c1.8,0,3.4-0.8,3.4-2.3
	c0-3.3-9.5-1.8-9.5-8.7c0-3.9,3.1-5.9,7.1-5.9c3.2,0,6.2,1.1,6.2,1.1l-0.1,4.1h-2.6l-0.7-1.4c0,0-1.3-0.4-2.5-0.4c-2,0-3,0.9-3,2
	c0,3.2,9.4,2,9.4,8.5c0,4.2-3.2,6.5-7.6,6.5c-3.2,0-6.2-1.1-6.2-1.1v-5.4C6,34.3,8.8,34.3,8.8,34.3z"/>
</svg>
